<?xml version="1.0" encoding="UTF-8"?><svg id="Layer_2" xmlns="http://www.w3.org/2000/svg" viewBox="0 0 142.6798 136.426"><g id="Components"><g id="_7f8d9b0c-c871-4681-8c18-85a964d21a3b_7"><path d="M142.6798,68.4039c0,32.1476-15.2467,54.2419-41.3768,63.3439,10.4957-14.0953,15.4916-32.0289,13.8784-50.885C112.5036,49.5621,82.9323,15.4161,59.3686.6787c3.8662-.4484,7.89-.6787,12.0652-.6787,43.9583,0,71.246,25.203,71.246,68.4039Z" style="fill:#c62d36; stroke-width:0px;"/><path d="M81.9838,104.9705c17.9764-26.3209,5.4329-69.6359-22.6152-104.2918C22.5063,4.9509,0,29.3055,0,68.4039c0,43.013,27.0937,68.0221,71.246,68.0221,11.1501,0,21.2277-1.5938,30.057-4.6782-3.1946-11.127-8.1742-19.6635-19.3191-26.7773Z" style="fill:#fff; stroke-width:0px;"/></g></g></svg>