<?xml version="1.0" encoding="UTF-8"?><svg id="Layer_2" xmlns="http://www.w3.org/2000/svg" viewBox="0 0 440.1543 106.5028"><g id="Components"><g id="f1958b5f-0a37-4a41-9bfe-5ebeb2896934_5"><path d="M282.9456,38.927h-11.5128V10.6933h-13.1574V.551h37.8277v10.1422h-13.1574v28.2338Z" style="fill:#fff; stroke-width:0px;"/><path d="M338.8159.551v10.1422h-20.3933v4.5504h17.1042v9.0456h-17.1042v4.4956h20.3933v10.1422h-31.9062V.551h31.9062Z" style="fill:#fff; stroke-width:0px;"/><path d="M390.4655,24.0702c-1.8096,9.5939-9.2106,15.4052-20.23,15.4052-12.7728,0-20.6128-7.2368-20.6128-19.6812C349.6226,7.2944,357.5715.0031,370.2908.0031c11.0194,0,18.4204,5.8657,20.1747,15.5694h-12.2803c-1.2064-3.1794-3.7826-5.3178-7.8944-5.3178-5.9206,0-8.7172,3.783-8.7172,9.4846s2.7966,9.4841,8.6619,9.4841c4.0574,0,6.6336-2.0283,7.8944-5.1532h12.3356Z" style="fill:#fff; stroke-width:0px;"/><path d="M412.785.551v14.7475h14.8564V.551h11.5128v38.376h-11.5128v-13.4862h-14.8564v13.4862h-11.5128V.551h11.5128Z" style="fill:#fff; stroke-width:0px;"/><path d="M247.5727,19.7929c0,9.302-4.4117,15.6951-11.9725,18.3288,3.037-4.0785,4.4825-9.2677,4.0158-14.7238-.7748-9.0569-9.3314-18.9372-16.1496-23.2016C224.5849.0666,225.7492,0,226.9574,0,239.6769,0,247.5727,7.2926,247.5727,19.7929Z" style="fill:#fff; stroke-width:0px;"/><path d="M230.01,30.3736c5.2015-7.6161,1.572-20.1494-6.5438-30.1772-10.6662,1.2362-17.1785,8.2833-17.1785,19.5965,0,12.446,7.8397,19.6825,20.6153,19.6825,3.2263,0,6.1423-.4612,8.6971-1.3537-.9244-3.2196-2.3652-5.6897-5.5901-7.7481Z" style="fill:#fff; stroke-width:0px;"/><path d="M39.2658,27.3049c.0549,7.7298-6.7978,12.0607-17.5432,12.1705-8.9358.1098-18.859-4.1119-20.7226-14.0895h11.7868c1.0962,2.7961,5.3723,4.276,9.1004,4.276,3.1798,0,4.9341-.7125,4.989-2.1929.2191-6.1401-24.9991.4935-24.9991-15.4052C1.8772,2.6346,12.1836-.1066,19.8041.0031c8.6619.1642,17.1595,3.8375,18.9138,13.3216h-11.7872c-1.3702-3.2891-5.0435-4.0565-8.2233-4.0565-2.9054,0-4.6597.7674-4.6597,2.2478,0,4.9886,25.1088-.5483,25.2181,15.7889Z" style="fill:#fff; stroke-width:0px;"/><path d="M61.5857.551v14.7475h14.8569V.551h11.5124v38.376h-11.5124v-13.4862h-14.8569v13.4862h-11.5128V.551h11.5128Z" style="fill:#fff; stroke-width:0px;"/><path d="M134.9443,38.927l-3.618-8.5525h-16.3372l-3.6184,8.5525h-12.6091L115.4277.551h15.4601l16.6661,38.376h-12.6095ZM119.2103,20.2327h7.8944l-3.9472-9.3748-3.9472,9.3748Z" style="fill:#fff; stroke-width:0px;"/><path d="M158.3606,38.927V.551h15.8987c13.5955,0,21.3258,6.3048,21.3258,19.2431,0,12.883-7.6754,19.1329-21.3258,19.1329h-15.8987ZM173.1626,28.7848c7.0722,0,10.4711-2.7961,10.4711-9.0456s-3.3989-9.046-10.4711-9.046h-3.2891v18.0916h3.2891Z" style="fill:#fff; stroke-width:0px;"/><path d="M433.7923,105.5028H20.02c-10.5,0-19.02-8.52-19.02-19.02v-11.5901c0-10.5,8.52-19.02,19.02-19.02h397.8923c8.9199,5.5901,20.12,18.52,21.13,30.3701.61,7.1299-1.2899,13.9199-5.25,19.26Z" style="fill:#fff; stroke:#fff; stroke-miterlimit:10; stroke-width:2px;"/><path d="M433.7031,105.9954c-.1865-.0342-.3389-.1709-.3916-.3535-1.3398-4.6357-3.3965-7.4922-7.0986-9.8584-.1133-.0723-.1934-.1885-.2207-.3213-.0264-.1318.001-.2695.0771-.3818,6.1748-9.0439,2.6602-25.0381-8.5459-38.8936-.1533-.1904-.1475-.4629.0146-.6465.0977-.1104.2354-.168.374-.168.0918,0,.1836.0254.2656.0762,9.7324,6.1006,20.3838,19.2705,21.3623,30.752.6133,7.1621-1.2852,14.123-5.3467,19.6006-.0947.1289-.2451.2021-.4014.2021-.0293,0-.0586-.0029-.0889-.0078Z" style="fill:#000; stroke-width:0px;"/><path d="M417.9121,55.8733c8.9199,5.5898,20.1201,18.5195,21.1299,30.3691.6104,7.1309-1.29,13.9204-5.25,19.2603-1.2197-4.2192-3.0996-7.4497-7.3096-10.1396,6.7998-9.9604,2.0498-26.3604-8.5703-39.4897M417.9131,54.8733c-.2783,0-.5537.1157-.749.3364-.3242.3657-.3369.9121-.0293,1.2925,11.0684,13.6846,14.5732,29.4331,8.5215,38.2969-.1523.2236-.208.499-.1533.7642.0537.2651.2129.4966.4414.6426,3.5889,2.293,5.584,5.0669,6.8867,9.5747.1055.3652.4092.6392.7832.7065.0596.0107.1191.0156.1777.0156.3135,0,.6123-.147.8037-.4043,4.1328-5.5737,6.0664-12.6553,5.4424-19.9409-.9922-11.6372-11.7588-24.9673-21.5947-31.1318-.1641-.1025-.3477-.1523-.5303-.1523h0Z" style="fill:#fff; stroke-width:0px;"/><path d="M84.1211,98.7918h-4.1777c-.4756,0-.8662-.1182-1.1719-.3564s-.5273-.5439-.6631-.917l-3.2354-8.4844h-16.127l-3.2354,8.4844c-.1191.3223-.3398.6152-.6621.8789-.3232.2627-.7139.3945-1.1719.3945h-4.1787l14.5732-36.585h5.4775l14.5723,36.585ZM73.3955,85.162l-5.4268-14.1904c-.3906-.9688-.7812-2.1914-1.1719-3.6689-.1865.7305-.3779,1.4102-.5732,2.0381-.1953.6289-.3867,1.1885-.5732,1.6816l-5.4014,14.1396h13.1465Z" style="fill:#000; stroke-width:0px;"/><path d="M102.5918,94.4354c1.4609,0,2.7686-.2461,3.9238-.7393,1.1543-.4922,2.1309-1.1846,2.9297-2.0762.7979-.8916,1.4092-1.9531,1.834-3.1846s.6367-2.5938.6367-4.0889v-22.1396h5.4014v22.1396c0,2.1396-.3398,4.1191-1.0186,5.9355-.6797,1.8184-1.6562,3.3887-2.9307,4.7139-1.2734,1.3242-2.8193,2.3604-4.6367,3.1084-1.8174.7471-3.8633,1.1211-6.1396,1.1211s-4.3223-.374-6.1396-1.1211c-1.8174-.748-3.3633-1.7842-4.6367-3.1084-1.2744-1.3252-2.251-2.8955-2.9297-4.7139-.6797-1.8164-1.0195-3.7959-1.0195-5.9355v-22.1396h5.4268v22.1143c0,1.4941.208,2.8623.624,4.1016.416,1.2402,1.0234,2.3057,1.8213,3.1973.7988.8916,1.7754,1.584,2.9307,2.0762,1.1543.4932,2.4619.7393,3.9229.7393Z" style="fill:#000; stroke-width:0px;"/><path d="M151.3535,66.742h-11.6172v32.0498h-5.4014v-32.0498h-11.668v-4.5352h28.6865v4.5352Z" style="fill:#000; stroke-width:0px;"/><path d="M189.6963,80.4998c0,2.7344-.4375,5.2441-1.3125,7.5283-.875,2.2842-2.1104,4.2539-3.707,5.9102s-3.5068,2.9424-5.7314,3.8604c-2.2256.917-4.6973,1.375-7.4141,1.375-2.7012,0-5.168-.458-7.4014-1.375-2.2334-.918-4.1445-2.2041-5.7324-3.8604-1.5879-1.6562-2.8232-3.626-3.707-5.9102-.8828-2.2842-1.3242-4.7939-1.3242-7.5283,0-2.7178.4414-5.2236,1.3242-7.5156.8838-2.293,2.1191-4.2676,3.707-5.9238,1.5879-1.6563,3.499-2.9463,5.7324-3.8721,2.2334-.9258,4.7002-1.3887,7.4014-1.3887,2.7168,0,5.1885.4629,7.4141,1.3887,2.2246.9258,4.1348,2.2158,5.7314,3.8721,1.5967,1.6562,2.832,3.6309,3.707,5.9238.875,2.292,1.3125,4.7979,1.3125,7.5156ZM184.1426,80.4998c0-2.1738-.2979-4.1279-.8926-5.8604-.5947-1.7324-1.4395-3.2012-2.5342-4.4072-1.0957-1.2061-2.4209-2.1309-3.9746-2.7773-1.5537-.6445-3.291-.9678-5.21-.9678-1.9199,0-3.6562.3232-5.21.9678-1.5547.6465-2.8838,1.5713-3.9873,2.7773-1.1045,1.2061-1.9531,2.6748-2.5479,4.4072s-.8916,3.6865-.8916,5.8604c0,2.1904.2969,4.1484.8916,5.8721.5947,1.7236,1.4434,3.1885,2.5479,4.3945,1.1035,1.2061,2.4326,2.1279,3.9873,2.7646,1.5537.6367,3.29.9551,5.21.9551,1.9189,0,3.6562-.3184,5.21-.9551,1.5537-.6367,2.8789-1.5586,3.9746-2.7646,1.0947-1.2061,1.9395-2.6709,2.5342-4.3945s.8926-3.6816.8926-5.8721Z" style="fill:#000; stroke-width:0px;"/><path d="M235.4775,62.2069v36.585h-4.7383v-26.0371c0-.3906.0127-.8066.0381-1.249.0254-.4414.0547-.8916.0889-1.3496l-12.1777,22.3428c-.4248.833-1.0791,1.249-1.9619,1.249h-.7646c-.8828,0-1.5283-.416-1.9355-1.249l-12.4072-22.4199c.1016.9521.1523,1.8438.1523,2.6758v26.0371h-4.7637v-36.585h4.0254c.4746,0,.8447.0469,1.1074.1406.2637.0928.5137.3525.752.7764l12.2285,21.9102c.2383.4424.459.9092.6631,1.4014.2031.4932.3984.9854.5859,1.4775.3564-1.002.7725-1.9697,1.248-2.9043l12-21.8848c.2207-.4238.4619-.6836.7256-.7764.2637-.0938.6328-.1406,1.1084-.1406h4.0254Z" style="fill:#000; stroke-width:0px;"/><path d="M279.1191,80.4998c0,2.7344-.4375,5.2441-1.3125,7.5283s-2.1104,4.2539-3.707,5.9102-3.5068,2.9424-5.7314,3.8604c-2.2256.917-4.6973,1.375-7.4141,1.375-2.7012,0-5.168-.458-7.4014-1.375-2.2334-.918-4.1445-2.2041-5.7324-3.8604s-2.8232-3.626-3.707-5.9102c-.8828-2.2842-1.3242-4.7939-1.3242-7.5283,0-2.7178.4414-5.2236,1.3242-7.5156.8838-2.293,2.1191-4.2676,3.707-5.9238,1.5879-1.6563,3.499-2.9463,5.7324-3.8721,2.2334-.9258,4.7002-1.3887,7.4014-1.3887,2.7168,0,5.1885.4629,7.4141,1.3887,2.2246.9258,4.1348,2.2158,5.7314,3.8721,1.5967,1.6562,2.832,3.6309,3.707,5.9238.875,2.292,1.3125,4.7979,1.3125,7.5156ZM273.5654,80.4998c0-2.1738-.2979-4.1279-.8926-5.8604-.5947-1.7324-1.4395-3.2012-2.5342-4.4072-1.0957-1.2061-2.4209-2.1309-3.9746-2.7773-1.5537-.6445-3.291-.9678-5.21-.9678-1.9199,0-3.6562.3232-5.21.9678-1.5547.6465-2.8838,1.5713-3.9873,2.7773-1.1045,1.2061-1.9531,2.6748-2.5479,4.4072-.5947,1.7324-.8916,3.6865-.8916,5.8604,0,2.1904.2969,4.1484.8916,5.8721.5947,1.7236,1.4434,3.1885,2.5479,4.3945,1.1035,1.2061,2.4326,2.1279,3.9873,2.7646,1.5537.6367,3.29.9551,5.21.9551,1.9189,0,3.6562-.3184,5.21-.9551,1.5537-.6367,2.8789-1.5586,3.9746-2.7646,1.0947-1.2061,1.9395-2.6709,2.5342-4.3945s.8926-3.6816.8926-5.8721Z" style="fill:#000; stroke-width:0px;"/><path d="M309.8183,66.742h-11.6172v32.0498h-5.4014v-32.0498h-11.668v-4.5352h28.6865v4.5352Z" style="fill:#000; stroke-width:0px;"/><path d="M321.0537,98.7918h-5.4521v-36.585h5.4521v36.585Z" style="fill:#000; stroke-width:0px;"/><path d="M360.7461,62.2069l-14.8779,36.585h-4.8662l-14.8789-36.585h4.3311c.4756,0,.8623.1191,1.1592.3564.2969.2383.5225.5439.6758.918l9.8848,24.8652c.2373.6113.4707,1.2822.7002,2.0127s.4375,1.4941.624,2.293c.1699-.7988.3574-1.5625.5605-2.293.2041-.7305.4248-1.4014.6631-2.0127l9.8594-24.8652c.1182-.3398.335-.6377.6494-.8926.3145-.2539.7012-.3818,1.1592-.3818h4.3564Z" style="fill:#000; stroke-width:0px;"/><path d="M388.5156,94.3846l-.0254,4.4072h-22.6738v-36.585h22.6738v4.4072h-17.2217v11.5928h13.8594v4.2539h-13.8594v11.9238h17.2471Z" style="fill:#000; stroke-width:0px;"/></g></g></svg>